<?xml version="1.0"?>
<svg xmlns:rdf="http://www.w3.org/1999/02/22-rdf-syntax-ns#" xmlns="http://www.w3.org/2000/svg" xmlns:cc="http://creativecommons.org/ns#" xmlns:xlink="http://www.w3.org/1999/xlink" xmlns:dc="http://purl.org/dc/elements/1.1/" xmlns:svg="http://www.w3.org/2000/svg" id="svg2" viewBox="0 0 349.69 773.94" version="1.1">
  <g id="layer4" transform="translate(-209.37 -179.49)">
    <path id="path10970" d="m369.39 179.5c-15.338-0.056-18.447 0.92528-27 8.5938-4.6182 4.1405-5.4147 4.4024-11.188 3.7188-5.8712-0.69536-6.2188-0.56468-6.2188 2.25 0 3.3559-1.7268 5.1059-6.4062 6.5-5.2755 1.5716-6.5137 3.0861-4.9375 6.0312 1.8756 3.5046-0.71048 5.1664-6.5625 4.1875-2.4629-0.41196-13.405-1.6274-24.312-2.6875s-23.169-2.2565-27.25-2.6562c-8.6418-0.84657-9.8673 0.13267-12.938 10.375-1.6781 5.5985-1.6806 6.467 0.0312 7.7188 1.6866 1.2333 1.6067 1.8477-0.75 4.8438-1.8766 2.3857-2.6724 5.0868-2.5625 8.9062 0.0868 3.0175-0.4264 8.0834-1.1562 11.25-3.2129 13.94-0.93951 23.039 8.4375 33.906 8.2703 9.5849 20.818 27.508 20.844 29.75 0.0325 2.7782 15.494 14.375 19.156 14.375 5.2329 0 14.992 6.3265 23.125 14.969 6.8159 7.2426 9.2336 11.116 13.938 22.188 5.5576 13.081 5.6902 13.706 5.625 26.812-0.0631 12.685-0.63808 15.602-10.406 51.844-5.6898 21.111-11.01 42.49-11.812 47.531-1.3582 8.5328-1.993 9.8248-9.4062 18.562-18.658 21.991-26.525 38.144-29.5 60.562-1.2251 9.2316-1.2107 12.778 0.125 17.906 0.91635 3.5184 1.6795 10.69 1.6875 15.938 0.0145 9.1047-0.21156 9.902-5.2812 17.281-6.901 10.045-14.645 18.074-19.219 19.969-2.7945 1.1575-3.625 2.3483-3.625 5.125 0 1.9926-0.59573 4.9461-1.3125 6.5625-0.71676 1.6164-3.2256 12.251-5.5938 23.656l-4.3125 20.75-10.406 14.156c-8.0329 10.935-10.221 14.812-9.6562 17.062 0.40221 1.6026 0.15065 9.6324-0.5625 17.844-1.5499 17.846-0.61634 22.084 8.9062 39.906 3.8023 7.1163 6.3125 13.425 6.3125 15.906 0 2.2634 0.91298 5.8688 2.0312 8.0312 1.5522 3.0016 1.8343 5.9646 1.2188 12.438-0.73839 7.7648-0.47394 9.1655 3.2188 16.781 2.2178 4.574 4.5064 9.8554 5.0625 11.719 0.95498 3.1998 0.011 19.634-2.0312 35.938l-0.90625 7.375h7.0625c4.7018 0 7.567 0.6314 8.625 1.9062 3.3883 4.0826 10.398 4.9067 21.219 2.5 11.402-2.5358 16.768-5.5432 21-11.719 2.4988-3.6468 3.6304-4.2188 8.25-4.2188 4.2646 0 6.1027 0.78835 9 3.8125l3.625 3.7812-0.875 23.594-0.875 23.562 3.9375 3.0312c2.1699 1.6548 6.2312 4.9203 9 7.2812 4.9426 4.2145 5.2749 4.3184 18.531 4.6562 7.4262 0.18929 13.872 0.68456 14.312 1.125 1.1292 1.1292 2.5779 1.0025 8.2188-0.6875 3.9998-1.1984 4.9375-2.0802 4.9375-4.625 0-1.7309 1.8031-5.1854 4-7.6875 3.6591-4.1675 3.9402-5.1057 3.3125-11.188-0.66615-6.4543-5.0176-16.704-10.188-24.031-1.9612-2.7797-2.3724-4.7641-1.75-8.6562 0.71691-4.4832 0.46125-5.2192-2.2812-6.4688-4.847-2.2084-10.474-17.352-9.4062-25.312 0.4902-3.6547 2.3266-6.3281 8.1562-11.969 7.329-7.0913 7.6954-7.256 14.781-7.2812 6.2076-0.022 7.6311-0.51652 9.7812-3.25 3.7969-4.827 12.044-4.516 16.344 0.59375 1.7447 2.0735 4.4476 4.1678 6 4.6562 4.8785 1.5349 17.982 10.781 22.719 16.031 4.3792 4.8547 4.9891 5.0784 16.281 6.4688 15.653 1.9272 20.692 4.7902 23.531 13.25 1.175 3.5013 2.1936 8.1237 2.25 10.281 0.0919 3.5133 0.84175 4.2212 7.0938 6.8125 3.8392 1.5913 8.3124 2.713 9.9375 2.5 1.6251-0.21296 5.2118 0.70815 8 2.0312 6.2635 2.9722 13.866 2.9428 24.469-0.0937 8.1114-2.323 8.1347-2.3485 10.188-8.875 1.9564-6.22 1.9159-6.9994-0.625-15.531-1.47-4.9361-3.0484-12.492-3.5-16.812-0.52159-4.9902-1.391-7.875-2.4062-7.875-1.9104 0-2.3248-1.5959-5.125-19.75-1.4879-9.6464-1.916-17.226-1.3438-24.312 0.45728-5.6623 0.77855-18.64 0.71875-28.844-0.12573-21.486 4.3389-55.467 9.5-72.312 3.1883-10.407 9.2476-43.811 12.969-71.625 1.854-13.858 2.5478-16.231 7.3125-24.312 13.51-22.915 11.153-51.804-7.9062-96.594-2.1341-5.0151-4.5566-12.957-5.375-17.656-0.81841-4.6997-3.1155-13.43-5.125-19.375-2.817-8.3337-3.6502-13.172-3.6562-21.125-0.007-8.2857-0.55083-11.073-2.6562-14.156-4.9515-7.2508-17.95-34.082-22.188-45.812-9.3263-25.82-16.094-50.078-16.094-57.562 0-8.5522 0.6804-9.0986 11.406-9.1562l6.9375-0.0312 2.25 7.5312c2.3258 7.78 7.796 14.809 14.062 18.094 5.3728 2.8162 6.3549 0.37158 3.5312-8.7812-4.5857-14.864-7.3253-29.655-9.4062-50.75-1.1454-11.611-2.4743-22.547-2.9688-24.281-0.86931-3.0491-15.421-16.515-29.469-27.281-3.7584-2.8804-9.1841-8.7036-12.062-12.969-12.44-18.434-29.488-32.186-54.594-44-15.367-7.2314-29.689-10.34-47.781-10.406zm113.78 490.91 1.8125 0.90625 1.3438 10.781 1.3438 9.4688-0.4375 5.8438v15.75l-1.8125-16.188v-1.8125l-3.1562-2.6875-0.875-4.0625-1.375-4.0625-2.25-5.375 3.1562-6.75 2.25-1.8125zm2.7188 92.719 1.7812 0.4375 0.90625 2.6875-4.5 9-4.5 11.281-1.3438 10.344 0.4375 8.5312 0.46875 8.5625-2.7188 3.1562-1.3438 5.8438-1.8125 5.8438-6.75-0.4375-10.781-5.8438-9-5.875-6.3125-7.1875-2.25-3.1562-1.3438-6.75 2.6875-4.0312 6.3125-0.46875 6.75-1.7812 4.9375-6.75 4.5-3.1562 8.125-4.0625 4.9375-4.5 4.5-3.1562 6.3125-8.5312z"/>
    <path id="path10084" d="m361.85 220.07c-0.15324-1.8177 1.2282-3.7939 2.8156-4.6926 1.4973-0.84776 3.5987-0.71898 5.1619 0 1.3102 0.60261 2.0179 2.0834 2.8156 3.2848 0.96737 1.4569 3.0771 3.1038 2.3463 4.6926-0.53899 1.1719-2.4659 0.87208-3.7541 0.93853-2.2092 0.11397-4.6305 0.12597-6.5697-0.93853-1.2642-0.69397-2.6944-1.8478-2.8156-3.2848z" stroke="#b5b5b5" stroke-width="1px" fill="#cdcdcd"/>
  </g>
  <metadata>
    <rdf:RDF>
      <cc:Work>
        <dc:format>image/svg+xml</dc:format>
        <dc:type rdf:resource="http://purl.org/dc/dcmitype/StillImage"/>
        <cc:license rdf:resource="http://creativecommons.org/licenses/publicdomain/"/>
        <dc:publisher>
          <cc:Agent rdf:about="http://openclipart.org/">
            <dc:title>Openclipart</dc:title>
          </cc:Agent>
        </dc:publisher>
        <dc:title>Rottweiler outline 2</dc:title>
        <dc:date>2010-03-24T04:29:21</dc:date>
        <dc:description>A sitting Rottweiler dog, in silhouette, second version (with eye and more empty spaces). Based on a picture I took of our late Duque, a wonderfully sweet dog. Done in Inkscape.</dc:description>
        <dc:source>http://openclipart.org/detail/33649/rottweiler-outline-2-by-j_alves</dc:source>
        <dc:creator>
          <cc:Agent>
            <dc:title>J_Alves</dc:title>
          </cc:Agent>
        </dc:creator>
        <dc:subject>
          <rdf:Bag>
            <rdf:li>animal</rdf:li>
            <rdf:li>black</rdf:li>
            <rdf:li>clip art</rdf:li>
            <rdf:li>clipart</rdf:li>
            <rdf:li>dog</rdf:li>
            <rdf:li>rottweiler</rdf:li>
            <rdf:li>silhouette</rdf:li>
          </rdf:Bag>
        </dc:subject>
      </cc:Work>
      <cc:License rdf:about="http://creativecommons.org/licenses/publicdomain/">
        <cc:permits rdf:resource="http://creativecommons.org/ns#Reproduction"/>
        <cc:permits rdf:resource="http://creativecommons.org/ns#Distribution"/>
        <cc:permits rdf:resource="http://creativecommons.org/ns#DerivativeWorks"/>
      </cc:License>
    </rdf:RDF>
  </metadata>
</svg>
