<?xml version="1.0" encoding="UTF-8" standalone="no"?>
<!-- Created with Inkscape (http://www.inkscape.org/) -->

<svg
   xmlns:dc="http://purl.org/dc/elements/1.1/"
   xmlns:cc="http://creativecommons.org/ns#"
   xmlns:rdf="http://www.w3.org/1999/02/22-rdf-syntax-ns#"
   xmlns:svg="http://www.w3.org/2000/svg"
   xmlns="http://www.w3.org/2000/svg"
   xmlns:sodipodi="http://sodipodi.sourceforge.net/DTD/sodipodi-0.dtd"
   xmlns:inkscape="http://www.inkscape.org/namespaces/inkscape"
   id="svg2"
   version="1.1"
   inkscape:version="0.48.0 r9654"
   width="700"
   height="700"
   xml:space="preserve"
   sodipodi:docname="gats.pdf"><metadata
     id="metadata8"><rdf:RDF><cc:Work
         rdf:about=""><dc:format>image/svg+xml</dc:format><dc:type
           rdf:resource="http://purl.org/dc/dcmitype/StillImage" /><dc:title></dc:title></cc:Work></rdf:RDF></metadata><defs
     id="defs6"><inkscape:perspective
       sodipodi:type="inkscape:persp3d"
       inkscape:vp_x="0 : 350 : 1"
       inkscape:vp_y="0 : 1000 : 0"
       inkscape:vp_z="700 : 350 : 1"
       inkscape:persp3d-origin="350 : 233.33333 : 1"
       id="perspective3060" /><clipPath
       clipPathUnits="userSpaceOnUse"
       id="clipPath16"><path
         d="m 0,0 1190.551,0 0,841.89 L 0,841.89 0,0 z"
         id="path18"
         inkscape:connector-curvature="0" /></clipPath></defs><sodipodi:namedview
     pagecolor="#ffffff"
     bordercolor="#666666"
     borderopacity="1"
     objecttolerance="10"
     gridtolerance="10"
     guidetolerance="10"
     inkscape:pageopacity="0"
     inkscape:pageshadow="2"
     inkscape:window-width="1232"
     inkscape:window-height="958"
     id="namedview4"
     showgrid="false"
     inkscape:zoom="1.0414286"
     inkscape:cx="350"
     inkscape:cy="350"
     inkscape:window-x="0"
     inkscape:window-y="0"
     inkscape:window-maximized="0"
     inkscape:current-layer="g10" /><g
     id="g10"
     inkscape:groupmode="layer"
     inkscape:label="gats"
     transform="matrix(1.25,0,0,-1.25,0,699.99995)"><g
       id="g28"
       transform="matrix(0.96452569,0,0,0.96452569,539.71775,165.09679)"><path
         d="m 0,0 c -2.338,17.768 -19.638,45.355 -33.666,50.031 -14.027,4.676 -55.174,19.17 -57.979,25.717 -2.805,6.546 -11.222,27.119 -9.819,33.197 1.403,6.079 12.624,36.471 10.754,64.059 -1.87,27.587 -7.949,50.03 -5.143,56.108 2.805,6.079 25.95,29.907 25.95,35.536 0,8.183 2.338,10.754 2.448,15.355 0.063,2.648 -4.963,11.659 -8.498,14.284 -3.535,2.624 -20.835,3.56 -24.108,5.898 -3.273,2.337 -3.772,7.078 -8.005,8.023 -3.472,0.775 -6.958,-0.543 -10.231,-0.075 -3.273,0.468 -6.078,2.338 -8.416,1.87 -2.338,-0.467 -3.624,0.351 -5.027,4.56 -1.403,4.208 -4.208,17.299 -5.968,17.649 -1.849,0.366 -6.773,-7.947 -7.942,-17.299 -1.169,-9.351 -1.557,-11.473 -5.805,-11.698 -4.248,-0.225 -27.041,24.266 -32.711,23.359 -5.67,-0.907 -8.709,-8.855 -3.332,-35.04 5.377,-26.184 8.65,-36.938 6.546,-46.758 -2.104,-9.819 -3.273,-26.885 -2.806,-34.367 0.468,-7.48 0.468,-14.261 -1.87,-16.365 -2.338,-2.104 -105.825,-34.863 -149.157,-104.736 -37.406,-60.318 -23.379,-134.662 -26.652,-139.338 -4.397,-6.283 -22.883,-14.831 -37.406,-14.963 -56.398,-0.51 -83.601,10.175 -99.415,29.415 -28.055,34.133 -16.833,75.747 -7.949,93.983 4.776,9.804 8.637,21.411 8.416,25.716 -0.233,4.56 -9.39,9.408 -16.833,2.338 -9.351,-8.884 -18.968,-28.786 -22.911,-57.512 -3.273,-23.845 -4.767,-79.389 52.658,-109.37 29.636,-15.473 77.15,-13.456 123.44,-13.456 l 240.802,0 c 0,0 7.657,0 7.657,6.442 0,4.793 -26.36,47.225 -31.503,60.786 -5.144,13.559 -9.352,30.392 -8.417,35.068 0.936,4.675 8.325,31.526 13.748,35.401 5.423,3.875 18.048,-8.282 42.829,-12.958 24.782,-4.675 52.369,-9.351 57.044,-13.092 4.676,-3.741 7.539,-11.84 7.745,-16.909 0.204,-5.067 3.01,-20.964 12.361,-22.368 C -9.819,-22.911 2.338,-17.768 0,0 m -162.249,-74.345 c -1.169,-2.338 -6.546,-0.233 -10.053,1.169 -3.507,1.404 -8.183,-1.169 -13.793,-1.402 -5.611,-0.235 -16.366,10.988 -20.234,12.682 -3.868,1.693 -9.458,-0.292 -12.132,0 -2.674,0.29 -2.796,3.523 -2.796,3.523 7.856,11.296 12.952,33.124 13.887,40.605 0.935,7.482 -4.124,13.933 -4.124,13.933 0,0 10.202,16.226 11.839,19.265 1.636,3.04 6.78,3.273 8.884,1.871 2.104,-1.404 5.143,-31.094 8.65,-46.057 3.507,-14.962 18.002,-39.276 19.872,-45.589"
         style="fill:#000000;fill-opacity:1;fill-rule:nonzero;stroke:none"
         id="path30"
         inkscape:connector-curvature="0" /></g></g></svg>